HIERARCHY
ROOT Hips
{
 OFFSET 0.000000 0.000000 0.000000
 CHANNELS 6 Xposition Yposition Zposition Yrotation Xrotation Zrotation
 JOINT Chest
 {
  OFFSET 0.000000 11.395451 -0.039534
  CHANNELS 3 Yrotation Xrotation Zrotation
  JOINT Chest2
  {
   OFFSET 0.000000 9.398669 0.071813
   CHANNELS 3 Yrotation Xrotation Zrotation
   JOINT Chest3
   {
    OFFSET 0.000000 8.489801 0.000000
    CHANNELS 3 Yrotation Xrotation Zrotation
    JOINT Chest4
    {
     OFFSET 0.000000 8.489801 0.000000
     CHANNELS 3 Yrotation Xrotation Zrotation
     JOINT Neck
     {
      OFFSET 0.000000 12.404889 0.000000
      CHANNELS 3 Yrotation Xrotation Zrotation
      JOINT Head
      {
       OFFSET 0.000000 8.903270 0.092239
       CHANNELS 3 Yrotation Xrotation Zrotation
       End Site
       {
        OFFSET 0.000000 17.592497 0.007158
       }
      }
     }
     JOINT RightCollar
     {
      OFFSET -3.196775 6.966722 0.000000
      CHANNELS 3 Yrotation Xrotation Zrotation
      JOINT RightShoulder
      {
       OFFSET -15.955896 0.000000 0.000000
       CHANNELS 3 Yrotation Xrotation Zrotation
       JOINT RightElbow
       {
        OFFSET -24.792472 0.000000 0.000000
        CHANNELS 3 Yrotation Xrotation Zrotation
        JOINT RightWrist
        {
         OFFSET -20.900115 0.000000 0.025002
         CHANNELS 3 Yrotation Xrotation Zrotation
         End Site
         {
          OFFSET -16.056692 0.000000 0.000000
         }
        }
       }
      }
     }
     JOINT LeftCollar
     {
      OFFSET 3.196775 6.966722 0.000000
      CHANNELS 3 Yrotation Xrotation Zrotation
      JOINT LeftShoulder
      {
       OFFSET 15.955896 0.000000 0.000000
       CHANNELS 3 Yrotation Xrotation Zrotation
       JOINT LeftElbow
       {
        OFFSET 24.792472 0.000000 0.000000
        CHANNELS 3 Yrotation Xrotation Zrotation
        JOINT LeftWrist
        {
         OFFSET 20.900115 0.000000 0.025002
         CHANNELS 3 Yrotation Xrotation Zrotation
         End Site
         {
          OFFSET 16.056692 0.000000 0.000000
         }
        }
       }
      }
     }
    }
   }
  }
 }
 JOINT RightHip
 {
  OFFSET -9.568995 0.193718 0.019767
  CHANNELS 3 Yrotation Xrotation Zrotation
  JOINT RightKnee
  {
   OFFSET 0.000000 -56.649296 0.015402
   CHANNELS 3 Yrotation Xrotation Zrotation
   JOINT RightAnkle
   {
    OFFSET 0.000000 -41.365147 0.021264
    CHANNELS 3 Yrotation Xrotation Zrotation
    JOINT RightToe
    {
     OFFSET 0.000000 -7.465940 17.672538
     CHANNELS 3 Yrotation Xrotation Zrotation
     End Site
     {
      OFFSET 0.000000 -1.736315 7.837145
     }
    }
   }
  }
 }
 JOINT LeftHip
 {
  OFFSET 9.568995 0.193718 0.019767
  CHANNELS 3 Yrotation Xrotation Zrotation
  JOINT LeftKnee
  {
   OFFSET 0.000000 -56.649296 0.015402
   CHANNELS 3 Yrotation Xrotation Zrotation
   JOINT LeftAnkle
   {
    OFFSET 0.000000 -41.365147 0.021264
    CHANNELS 3 Yrotation Xrotation Zrotation
    JOINT LeftToe
    {
     OFFSET 0.000000 -7.465940 17.672538
     CHANNELS 3 Yrotation Xrotation Zrotation
     End Site
     {
      OFFSET 0.000000 -1.736315 7.837145
     }
    }
   }
  }
 }
}
MOTION
Frames: 12
Frame Time: 0.016667
410.367204 106.968255 449.236750 -52.864111 -6.972706 1.168386 0.936712 3.350887 -0.280029 0.418156 1.488716 -0.131168 0.418156 1.488716 -0.131168 0.313919 1.116448 -0.099390 -0.636654 16.999735 -0.635879 -0.956568 -4.616360 -0.954864 5.003684 2.485577 9.225900 6.690461 -12.177224 80.173851 -5.404146 11.026849 -8.046093 0.356401 -1.484136 2.175336 -0.142839 5.335174 -8.302048 -5.040522 -12.079765 -77.811808 0.413047 6.874775 2.105506 2.128415 2.045068 -2.872370 -3.960480 10.753237 -3.457390 -0.484287 -0.007164 0.039456 -3.204026 -4.421674 0.953514 0.000000 0.000000 0.000000 3.577528 10.787196 -0.139288 0.758344 2.850679 0.252095 1.512503 -4.948886 -0.013347 0.010278 -1.375042 -1.044863
410.390684 106.955331 449.224672 -52.840043 -6.880516 1.180032 0.931997 3.325476 -0.270842 0.415983 1.477444 -0.127002 0.415983 1.477444 -0.127002 0.312277 1.107997 -0.096252 -0.642266 16.978379 -0.644279 -0.963966 -4.656052 -0.968393 4.971460 2.469160 9.159791 6.731096 -12.129166 80.180291 -5.354047 10.994436 -8.028030 0.396110 -1.493621 2.188934 -0.153186 5.286730 -8.301057 -5.025016 -12.094665 -77.830258 0.419524 6.874804 2.081710 2.148083 2.045005 -2.891893 -3.880978 10.626015 -3.438247 -0.593926 0.063088 0.073190 -3.175236 -4.454115 0.917173 0.000000 0.000000 0.000000 3.543825 10.655980 -0.201451 0.798254 2.888755 0.342731 1.482930 -4.973470 -0.071632 0.010621 -1.386221 -1.034780
410.414163 106.942406 449.212593 -52.815962 -6.788331 1.191716 0.927299 3.300062 -0.261654 0.413818 1.466169 -0.122837 0.413818 1.466170 -0.122837 0.310642 1.099545 -0.093116 -0.647868 16.957022 -0.652679 -0.971341 -4.695745 -0.981929 4.939230 2.452703 9.093705 6.771758 -12.081128 80.186738 -5.303962 10.962013 -8.009995 0.435819 -1.503111 2.202522 -0.163502 5.238279 -8.300064 -5.009490 -12.109552 -77.848712 0.426008 6.874829 2.057916 2.167757 2.044944 -2.911409 -3.801536 10.498771 -3.419468 -0.703559 0.133330 0.106836 -3.146421 -4.486526 0.880806 -0.000000 0.000000 -0.000000 3.510227 10.524745 -0.263524 0.838192 2.926755 0.433415 1.453406 -4.998082 -0.129920 0.010956 -1.397400 -1.024696
410.433826 106.931895 449.200212 -52.794717 -6.704777 1.200241 0.925435 3.279293 -0.252687 0.412917 1.456958 -0.118800 0.412917 1.456958 -0.118800 0.309954 1.092639 -0.090080 -0.646299 16.925963 -0.656749 -0.966919 -4.753428 -0.989931 4.907602 2.432006 9.037672 6.811504 -12.032736 80.186937 -5.258476 10.932544 -7.990974 0.471598 -1.509862 2.217673 -0.176757 5.187125 -8.298205 -4.990368 -12.118558 -77.867525 0.430123 6.871845 2.039208 2.186346 2.044245 -2.927560 -3.745114 10.381325 -3.404991 -0.786532 0.199800 0.131732 -3.123680 -4.519667 0.852656 -0.000000 -0.000000 -0.000000 3.485098 10.408427 -0.315041 0.870715 2.959095 0.514655 1.426630 -5.020156 -0.183695 0.011155 -1.402680 -1.015405
410.447986 106.925181 449.187099 -52.776690 -6.633636 1.203161 0.926953 3.265868 -0.243522 0.413521 1.451009 -0.114712 0.413521 1.451009 -0.114713 0.310397 1.088179 -0.087012 -0.633247 16.876510 -0.653875 -0.943599 -4.845228 -0.989055 4.876462 2.403377 8.997659 6.852339 -11.983041 80.173025 -5.217801 10.909283 -7.967743 0.500725 -1.512212 2.238134 -0.195586 5.129905 -8.294471 -4.966024 -12.117910 -77.890309 0.431480 6.861707 2.031910 2.203601 2.042646 -2.937125 -3.728207 10.277311 -3.396767 -0.823590 0.261451 0.141486 -3.112865 -4.554591 0.838187 -0.000000 -0.000000 -0.000000 3.474827 10.314376 -0.349889 0.889813 2.982202 0.582663 1.403081 -5.037953 -0.231485 0.011157 -1.398946 -1.007117
410.458329 106.920879 449.173683 -52.761516 -6.571121 1.202903 0.931294 3.257090 -0.234586 0.415384 1.447123 -0.110756 0.415384 1.447123 -0.110756 0.311783 1.085268 -0.084046 -0.613034 16.817357 -0.646736 -0.908478 -4.955018 -0.982789 4.845941 2.370532 8.967701 6.892209 -11.932961 80.152888 -5.181715 10.888984 -7.943518 0.525931 -1.511820 2.260156 -0.217362 5.069980 -8.289861 -4.938104 -12.111374 -77.913436 0.430462 6.848563 2.029696 2.219769 2.040408 -2.943320 -3.734270 10.183117 -3.392489 -0.833996 0.319340 0.142568 -3.108146 -4.590274 0.831960 0.000000 -0.000000 0.000000 3.472933 10.235268 -0.374284 0.901477 2.999697 0.641189 1.382254 -5.053197 -0.274760 0.011033 -1.389313 -0.999623
410.466101 106.917250 449.160949 -52.750934 -6.514495 1.203569 0.939610 3.249525 -0.227374 0.419024 1.443771 -0.107595 0.419024 1.443771 -0.107595 0.314506 1.082755 -0.081682 -0.591455 16.764885 -0.638927 -0.871070 -5.052395 -0.975807 4.817018 2.340390 8.939930 6.924104 -11.884938 80.143893 -5.154148 10.864875 -7.926939 0.551454 -1.510912 2.274068 -0.237172 5.014735 -8.286544 -4.907937 -12.104394 -77.926402 0.425866 6.841837 2.018682 2.234505 2.037680 -2.952443 -3.736689 10.097696 -3.389668 -0.848880 0.372871 0.145611 -3.098088 -4.624369 0.825870 0.000000 0.000000 0.000000 3.468462 10.164029 -0.396250 0.916265 3.016802 0.692043 1.365364 -5.068510 -0.313412 0.010865 -1.377236 -0.993092
410.471357 106.913918 449.149320 -52.750747 -6.463271 1.207254 0.954840 3.241888 -0.222783 0.425756 1.440379 -0.105646 0.425756 1.440379 -0.105646 0.319549 1.080211 -0.080234 -0.566930 16.724595 -0.630350 -0.828496 -5.127133 -0.968487 4.789531 2.315978 8.911505 6.941454 -11.840750 80.157168 -5.138358 10.831700 -7.924798 0.580435 -1.510774 2.271563 -0.252636 4.966754 -8.285901 -4.872071 -12.097516 -77.921423 0.412267 6.848705 1.986560 2.247770 2.034123 -2.969461 -3.723930 10.020718 -3.388653 -0.880463 0.421994 0.155424 -3.074593 -4.655781 0.817045 0.000000 0.000000 -0.000000 3.457483 10.099551 -0.418974 0.942111 3.035089 0.734796 1.353766 -5.085071 -0.346873 0.010648 -1.362043 -0.987689
410.474041 106.911258 449.138373 -52.755146 -6.417935 1.211841 0.974038 3.235468 -0.219926 0.434262 1.437522 -0.104498 0.434262 1.437522 -0.104498 0.325925 1.078068 -0.079391 -0.541048 16.690979 -0.621093 -0.783662 -5.189475 -0.960415 4.763633 2.294286 8.885251 6.950881 -11.798641 80.181565 -5.131073 10.794719 -7.930259 0.609723 -1.510114 2.260959 -0.266148 4.923459 -8.286575 -4.833964 -12.090227 -77.906275 0.395108 6.861975 1.945620 2.259616 2.030072 -2.989407 -3.707523 9.952514 -3.389114 -0.916519 0.466765 0.167173 -3.045753 -4.685599 0.808347 0.000000 0.000000 -0.000000 3.443931 10.042930 -0.439226 0.971081 3.053002 0.769875 1.346097 -5.101690 -0.375711 0.010388 -1.344406 -0.983248
410.475234 106.908658 449.127834 -52.748447 -6.377220 1.215137 0.989518 3.230687 -0.217615 0.441121 1.435395 -0.103569 0.441121 1.435395 -0.103569 0.331067 1.076472 -0.078709 -0.524344 16.663908 -0.614978 -0.754752 -5.239694 -0.954949 4.740767 2.273176 8.861781 6.965182 -11.755767 80.201030 -5.126454 10.762951 -7.931532 0.634108 -1.507301 2.257511 -0.279958 4.884494 -8.286629 -4.805299 -12.086377 -77.893812 0.389485 6.869550 1.918902 2.269826 2.026689 -3.003682 -3.695466 9.893016 -3.387660 -0.951499 0.506736 0.177008 -3.024409 -4.714742 0.800256 0.000000 0.000000 0.000000 3.428682 9.990401 -0.455396 0.989927 3.071068 0.800382 1.339505 -5.117440 -0.401525 0.010183 -1.329796 -0.979439
410.475036 106.905889 449.117528 -52.720856 -6.340497 1.215751 0.997150 3.227648 -0.215563 0.444497 1.434045 -0.102704 0.444497 1.434045 -0.102704 0.333596 1.075460 -0.078067 -0.521510 16.644106 -0.613566 -0.749928 -5.276461 -0.953309 4.721882 2.251575 8.841949 6.990586 -11.710186 80.209815 -5.124575 10.740415 -7.924219 0.649724 -1.500469 2.270019 -0.295883 4.850781 -8.284702 -4.793962 -12.087184 -77.889165 0.402000 6.867215 1.917371 2.276500 2.023802 -3.006058 -3.690633 9.843356 -3.382077 -0.984966 0.540212 0.183450 -3.017403 -4.743439 0.793043 0.000000 0.000000 0.000000 3.411352 9.939871 -0.465782 0.989897 3.090004 0.826671 1.333664 -5.132049 -0.424624 0.010077 -1.320885 -0.976096
410.473345 106.903180 449.107630 -52.682174 -6.308394 1.215098 1.001064 3.226247 -0.214044 0.446224 1.433424 -0.102053 0.446224 1.433424 -0.102053 0.334890 1.074994 -0.077583 -0.527844 16.630856 -0.615248 -0.761033 -5.301088 -0.954168 4.706028 2.230562 8.824890 7.020836 -11.663837 80.213701 -5.125361 10.723103 -7.912722 0.660459 -1.491474 2.289667 -0.312110 4.821398 -8.282152 -4.792058 -12.091419 -77.887225 0.426020 6.859202 1.930089 2.281519 2.021584 -3.002769 -3.690151 9.802397 -3.374581 -1.017363 0.568880 0.188010 -3.017896 -4.771465 0.786448 0.000000 0.000000 0.000000 3.392314 9.893443 -0.472121 0.979740 3.109101 0.848380 1.328896 -5.145788 -0.444700 0.010024 -1.315002 -0.973385
